<mxfile host="app.diagrams.net" modified="2024-03-22T22:21:18.225Z" agent="Mozilla/5.0 (Windows NT 10.0; Win64; x64) AppleWebKit/537.36 (KHTML, like Gecko) Chrome/122.0.0.0 Safari/537.36 OPR/108.0.0.0 (Edition Yx)" etag="HmW0kOLErQWvZ6KXvy0k" version="24.0.8" type="github">
  <diagram id="R2lEEEUBdFMjLlhIrx00" name="Page-1">
    <mxGraphModel dx="362" dy="194" grid="1" gridSize="10" guides="1" tooltips="1" connect="1" arrows="1" fold="1" page="1" pageScale="1" pageWidth="850" pageHeight="1100" math="0" shadow="0" extFonts="Permanent Marker^https://fonts.googleapis.com/css?family=Permanent+Marker">
      <root>
        <mxCell id="0" />
        <mxCell id="1" parent="0" />
        <mxCell id="8JxmKr_kiKocds3KToK2-6" style="rounded=0;orthogonalLoop=1;jettySize=auto;html=1;exitX=1;exitY=0.5;exitDx=0;exitDy=0;entryX=0;entryY=0.5;entryDx=0;entryDy=0;endArrow=none;endFill=0;" edge="1" parent="1" source="8JxmKr_kiKocds3KToK2-1" target="8JxmKr_kiKocds3KToK2-5">
          <mxGeometry relative="1" as="geometry" />
        </mxCell>
        <mxCell id="8JxmKr_kiKocds3KToK2-9" style="rounded=0;orthogonalLoop=1;jettySize=auto;html=1;exitX=0;exitY=0.25;exitDx=0;exitDy=0;entryX=1;entryY=0.5;entryDx=0;entryDy=0;endArrow=none;endFill=0;" edge="1" parent="1" source="8JxmKr_kiKocds3KToK2-1" target="8JxmKr_kiKocds3KToK2-2">
          <mxGeometry relative="1" as="geometry" />
        </mxCell>
        <mxCell id="8JxmKr_kiKocds3KToK2-10" style="rounded=0;orthogonalLoop=1;jettySize=auto;html=1;exitX=0.25;exitY=0;exitDx=0;exitDy=0;entryX=0.5;entryY=1;entryDx=0;entryDy=0;endArrow=none;endFill=0;" edge="1" parent="1" source="8JxmKr_kiKocds3KToK2-1" target="8JxmKr_kiKocds3KToK2-3">
          <mxGeometry relative="1" as="geometry" />
        </mxCell>
        <mxCell id="8JxmKr_kiKocds3KToK2-11" style="rounded=0;orthogonalLoop=1;jettySize=auto;html=1;exitX=0.75;exitY=0;exitDx=0;exitDy=0;entryX=0;entryY=1;entryDx=0;entryDy=0;endArrow=none;endFill=0;" edge="1" parent="1" source="8JxmKr_kiKocds3KToK2-1" target="8JxmKr_kiKocds3KToK2-4">
          <mxGeometry relative="1" as="geometry" />
        </mxCell>
        <mxCell id="8JxmKr_kiKocds3KToK2-13" style="rounded=0;orthogonalLoop=1;jettySize=auto;html=1;exitX=0.25;exitY=1;exitDx=0;exitDy=0;entryX=1;entryY=0;entryDx=0;entryDy=0;" edge="1" parent="1" source="8JxmKr_kiKocds3KToK2-1" target="8JxmKr_kiKocds3KToK2-12">
          <mxGeometry relative="1" as="geometry" />
        </mxCell>
        <mxCell id="8JxmKr_kiKocds3KToK2-1" value="&lt;font style=&quot;font-size: 8px;&quot;&gt;Profile&lt;/font&gt;" style="rounded=0;whiteSpace=wrap;html=1;" vertex="1" parent="1">
          <mxGeometry x="260" y="250" width="50" height="20" as="geometry" />
        </mxCell>
        <mxCell id="8JxmKr_kiKocds3KToK2-2" value="&lt;font style=&quot;font-size: 8px;&quot;&gt;name&lt;/font&gt;" style="ellipse;whiteSpace=wrap;html=1;" vertex="1" parent="1">
          <mxGeometry x="210" y="240" width="40" height="20" as="geometry" />
        </mxCell>
        <mxCell id="8JxmKr_kiKocds3KToK2-3" value="&lt;font style=&quot;font-size: 8px;&quot;&gt;surname&lt;/font&gt;" style="ellipse;whiteSpace=wrap;html=1;" vertex="1" parent="1">
          <mxGeometry x="250" y="220" width="40" height="20" as="geometry" />
        </mxCell>
        <mxCell id="8JxmKr_kiKocds3KToK2-4" value="&lt;font style=&quot;font-size: 8px;&quot;&gt;dateOfBirth&lt;/font&gt;" style="ellipse;whiteSpace=wrap;html=1;" vertex="1" parent="1">
          <mxGeometry x="300" y="220" width="40" height="20" as="geometry" />
        </mxCell>
        <mxCell id="8JxmKr_kiKocds3KToK2-5" value="&lt;font style=&quot;font-size: 8px;&quot;&gt;hasPosted&lt;/font&gt;" style="rhombus;whiteSpace=wrap;html=1;" vertex="1" parent="1">
          <mxGeometry x="350" y="240" width="40" height="40" as="geometry" />
        </mxCell>
        <mxCell id="8JxmKr_kiKocds3KToK2-8" style="rounded=0;orthogonalLoop=1;jettySize=auto;html=1;exitX=0;exitY=0.5;exitDx=0;exitDy=0;entryX=1;entryY=0.5;entryDx=0;entryDy=0;strokeWidth=3;" edge="1" parent="1" source="8JxmKr_kiKocds3KToK2-7" target="8JxmKr_kiKocds3KToK2-5">
          <mxGeometry relative="1" as="geometry" />
        </mxCell>
        <mxCell id="8JxmKr_kiKocds3KToK2-26" style="rounded=0;orthogonalLoop=1;jettySize=auto;html=1;exitX=1;exitY=0.5;exitDx=0;exitDy=0;entryX=0;entryY=0;entryDx=0;entryDy=0;endArrow=none;endFill=0;" edge="1" parent="1" source="8JxmKr_kiKocds3KToK2-7" target="8JxmKr_kiKocds3KToK2-24">
          <mxGeometry relative="1" as="geometry" />
        </mxCell>
        <mxCell id="8JxmKr_kiKocds3KToK2-28" style="rounded=0;orthogonalLoop=1;jettySize=auto;html=1;exitX=0.25;exitY=0;exitDx=0;exitDy=0;entryX=0.5;entryY=1;entryDx=0;entryDy=0;endArrow=none;endFill=0;" edge="1" parent="1" source="8JxmKr_kiKocds3KToK2-7" target="8JxmKr_kiKocds3KToK2-22">
          <mxGeometry relative="1" as="geometry" />
        </mxCell>
        <mxCell id="8JxmKr_kiKocds3KToK2-29" style="rounded=0;orthogonalLoop=1;jettySize=auto;html=1;exitX=1;exitY=0;exitDx=0;exitDy=0;entryX=0.5;entryY=1;entryDx=0;entryDy=0;endArrow=none;endFill=0;" edge="1" parent="1" source="8JxmKr_kiKocds3KToK2-7" target="8JxmKr_kiKocds3KToK2-23">
          <mxGeometry relative="1" as="geometry" />
        </mxCell>
        <mxCell id="8JxmKr_kiKocds3KToK2-33" style="rounded=0;orthogonalLoop=1;jettySize=auto;html=1;exitX=0.75;exitY=1;exitDx=0;exitDy=0;entryX=0.5;entryY=0;entryDx=0;entryDy=0;endArrow=classic;endFill=1;" edge="1" parent="1" source="8JxmKr_kiKocds3KToK2-7" target="8JxmKr_kiKocds3KToK2-32">
          <mxGeometry relative="1" as="geometry" />
        </mxCell>
        <mxCell id="8JxmKr_kiKocds3KToK2-7" value="&lt;font style=&quot;font-size: 8px;&quot;&gt;Post&lt;/font&gt;" style="rounded=0;whiteSpace=wrap;html=1;" vertex="1" parent="1">
          <mxGeometry x="425" y="250" width="50" height="20" as="geometry" />
        </mxCell>
        <mxCell id="8JxmKr_kiKocds3KToK2-12" value="&lt;font style=&quot;font-size: 8px;&quot;&gt;profileDisplayedOn&lt;/font&gt;" style="rhombus;whiteSpace=wrap;html=1;" vertex="1" parent="1">
          <mxGeometry x="220" y="280" width="40" height="40" as="geometry" />
        </mxCell>
        <mxCell id="8JxmKr_kiKocds3KToK2-15" style="rounded=0;orthogonalLoop=1;jettySize=auto;html=1;exitX=1;exitY=0;exitDx=0;exitDy=0;entryX=0;entryY=1;entryDx=0;entryDy=0;strokeWidth=3;" edge="1" parent="1" source="8JxmKr_kiKocds3KToK2-14" target="8JxmKr_kiKocds3KToK2-12">
          <mxGeometry relative="1" as="geometry" />
        </mxCell>
        <mxCell id="8JxmKr_kiKocds3KToK2-20" style="rounded=0;orthogonalLoop=1;jettySize=auto;html=1;exitX=0;exitY=0;exitDx=0;exitDy=0;entryX=1;entryY=0.5;entryDx=0;entryDy=0;endArrow=none;endFill=0;" edge="1" parent="1" source="8JxmKr_kiKocds3KToK2-14" target="8JxmKr_kiKocds3KToK2-17">
          <mxGeometry relative="1" as="geometry" />
        </mxCell>
        <mxCell id="8JxmKr_kiKocds3KToK2-21" style="rounded=0;orthogonalLoop=1;jettySize=auto;html=1;exitX=0;exitY=0.5;exitDx=0;exitDy=0;entryX=1;entryY=0;entryDx=0;entryDy=0;endArrow=none;endFill=0;" edge="1" parent="1" source="8JxmKr_kiKocds3KToK2-14" target="8JxmKr_kiKocds3KToK2-18">
          <mxGeometry relative="1" as="geometry" />
        </mxCell>
        <mxCell id="8JxmKr_kiKocds3KToK2-14" value="&lt;font style=&quot;font-size: 8px;&quot;&gt;ProfileFrame&lt;/font&gt;" style="rounded=0;whiteSpace=wrap;html=1;" vertex="1" parent="1">
          <mxGeometry x="160" y="320" width="50" height="20" as="geometry" />
        </mxCell>
        <mxCell id="8JxmKr_kiKocds3KToK2-16" value="&lt;font style=&quot;font-size: 8px;&quot;&gt;width&lt;/font&gt;" style="ellipse;whiteSpace=wrap;html=1;" vertex="1" parent="1">
          <mxGeometry x="160" y="290" width="40" height="20" as="geometry" />
        </mxCell>
        <mxCell id="8JxmKr_kiKocds3KToK2-17" value="&lt;span style=&quot;font-size: 8px;&quot;&gt;height&lt;/span&gt;" style="ellipse;whiteSpace=wrap;html=1;" vertex="1" parent="1">
          <mxGeometry x="110" y="300" width="40" height="20" as="geometry" />
        </mxCell>
        <mxCell id="8JxmKr_kiKocds3KToK2-18" value="&lt;font style=&quot;font-size: 8px;&quot;&gt;location&lt;/font&gt;" style="ellipse;whiteSpace=wrap;html=1;" vertex="1" parent="1">
          <mxGeometry x="110" y="330" width="40" height="20" as="geometry" />
        </mxCell>
        <mxCell id="8JxmKr_kiKocds3KToK2-19" style="rounded=0;orthogonalLoop=1;jettySize=auto;html=1;exitX=0.5;exitY=0;exitDx=0;exitDy=0;entryX=0.485;entryY=0.917;entryDx=0;entryDy=0;entryPerimeter=0;endArrow=none;endFill=0;" edge="1" parent="1" source="8JxmKr_kiKocds3KToK2-14" target="8JxmKr_kiKocds3KToK2-16">
          <mxGeometry relative="1" as="geometry" />
        </mxCell>
        <mxCell id="8JxmKr_kiKocds3KToK2-22" value="&lt;font style=&quot;font-size: 8px;&quot;&gt;media&lt;/font&gt;" style="ellipse;whiteSpace=wrap;html=1;" vertex="1" parent="1">
          <mxGeometry x="410" y="220" width="40" height="20" as="geometry" />
        </mxCell>
        <mxCell id="8JxmKr_kiKocds3KToK2-23" value="&lt;font style=&quot;font-size: 8px;&quot;&gt;description&lt;/font&gt;" style="ellipse;whiteSpace=wrap;html=1;" vertex="1" parent="1">
          <mxGeometry x="460" y="220" width="40" height="20" as="geometry" />
        </mxCell>
        <mxCell id="8JxmKr_kiKocds3KToK2-24" value="&lt;span style=&quot;font-size: 8px;&quot;&gt;includes&lt;/span&gt;" style="rhombus;whiteSpace=wrap;html=1;" vertex="1" parent="1">
          <mxGeometry x="490" y="260" width="40" height="40" as="geometry" />
        </mxCell>
        <mxCell id="8JxmKr_kiKocds3KToK2-27" style="rounded=0;orthogonalLoop=1;jettySize=auto;html=1;exitX=0;exitY=0;exitDx=0;exitDy=0;entryX=1;entryY=1;entryDx=0;entryDy=0;endArrow=none;endFill=0;" edge="1" parent="1" source="8JxmKr_kiKocds3KToK2-25" target="8JxmKr_kiKocds3KToK2-24">
          <mxGeometry relative="1" as="geometry" />
        </mxCell>
        <mxCell id="8JxmKr_kiKocds3KToK2-31" style="rounded=0;orthogonalLoop=1;jettySize=auto;html=1;exitX=0.75;exitY=0;exitDx=0;exitDy=0;entryX=0.5;entryY=1;entryDx=0;entryDy=0;endArrow=none;endFill=0;" edge="1" parent="1" source="8JxmKr_kiKocds3KToK2-25" target="8JxmKr_kiKocds3KToK2-30">
          <mxGeometry relative="1" as="geometry" />
        </mxCell>
        <mxCell id="8JxmKr_kiKocds3KToK2-25" value="&lt;font style=&quot;font-size: 8px;&quot;&gt;Tag&lt;/font&gt;" style="rounded=0;whiteSpace=wrap;html=1;" vertex="1" parent="1">
          <mxGeometry x="540" y="300" width="50" height="20" as="geometry" />
        </mxCell>
        <mxCell id="8JxmKr_kiKocds3KToK2-30" value="&lt;font style=&quot;font-size: 8px;&quot;&gt;nameOfTag&lt;/font&gt;" style="ellipse;whiteSpace=wrap;html=1;" vertex="1" parent="1">
          <mxGeometry x="560" y="270" width="40" height="20" as="geometry" />
        </mxCell>
        <mxCell id="8JxmKr_kiKocds3KToK2-32" value="&lt;span style=&quot;font-size: 8px;&quot;&gt;postDisplayedOn&lt;/span&gt;" style="rhombus;whiteSpace=wrap;html=1;" vertex="1" parent="1">
          <mxGeometry x="450" y="290" width="40" height="40" as="geometry" />
        </mxCell>
        <mxCell id="8JxmKr_kiKocds3KToK2-35" style="rounded=0;orthogonalLoop=1;jettySize=auto;html=1;exitX=0;exitY=0;exitDx=0;exitDy=0;entryX=1;entryY=1;entryDx=0;entryDy=0;endArrow=classic;endFill=1;strokeWidth=3;" edge="1" parent="1" source="8JxmKr_kiKocds3KToK2-34" target="8JxmKr_kiKocds3KToK2-32">
          <mxGeometry relative="1" as="geometry" />
        </mxCell>
        <mxCell id="8JxmKr_kiKocds3KToK2-34" value="&lt;font style=&quot;font-size: 8px;&quot;&gt;PostFrame&lt;/font&gt;" style="rounded=0;whiteSpace=wrap;html=1;" vertex="1" parent="1">
          <mxGeometry x="500" y="340" width="50" height="20" as="geometry" />
        </mxCell>
        <mxCell id="8JxmKr_kiKocds3KToK2-36" style="rounded=0;orthogonalLoop=1;jettySize=auto;html=1;exitX=1;exitY=1;exitDx=0;exitDy=0;entryX=0;entryY=0;entryDx=0;entryDy=0;endArrow=none;endFill=0;" edge="1" parent="1" target="8JxmKr_kiKocds3KToK2-39" source="8JxmKr_kiKocds3KToK2-34">
          <mxGeometry relative="1" as="geometry">
            <mxPoint x="570" y="370" as="sourcePoint" />
          </mxGeometry>
        </mxCell>
        <mxCell id="8JxmKr_kiKocds3KToK2-37" style="rounded=0;orthogonalLoop=1;jettySize=auto;html=1;exitX=0.5;exitY=1;exitDx=0;exitDy=0;entryX=0.5;entryY=0;entryDx=0;entryDy=0;endArrow=none;endFill=0;" edge="1" parent="1" target="8JxmKr_kiKocds3KToK2-40" source="8JxmKr_kiKocds3KToK2-34">
          <mxGeometry relative="1" as="geometry">
            <mxPoint x="570" y="380" as="sourcePoint" />
          </mxGeometry>
        </mxCell>
        <mxCell id="8JxmKr_kiKocds3KToK2-38" value="&lt;font style=&quot;font-size: 8px;&quot;&gt;width&lt;/font&gt;" style="ellipse;whiteSpace=wrap;html=1;" vertex="1" parent="1">
          <mxGeometry x="570" y="340" width="40" height="20" as="geometry" />
        </mxCell>
        <mxCell id="8JxmKr_kiKocds3KToK2-39" value="&lt;span style=&quot;font-size: 8px;&quot;&gt;height&lt;/span&gt;" style="ellipse;whiteSpace=wrap;html=1;" vertex="1" parent="1">
          <mxGeometry x="570" y="370" width="40" height="20" as="geometry" />
        </mxCell>
        <mxCell id="8JxmKr_kiKocds3KToK2-40" value="&lt;font style=&quot;font-size: 8px;&quot;&gt;location&lt;/font&gt;" style="ellipse;whiteSpace=wrap;html=1;" vertex="1" parent="1">
          <mxGeometry x="505" y="370" width="40" height="20" as="geometry" />
        </mxCell>
        <mxCell id="8JxmKr_kiKocds3KToK2-41" style="rounded=0;orthogonalLoop=1;jettySize=auto;html=1;exitX=1;exitY=0.5;exitDx=0;exitDy=0;entryX=0;entryY=0.5;entryDx=0;entryDy=0;endArrow=none;endFill=0;" edge="1" parent="1" target="8JxmKr_kiKocds3KToK2-38" source="8JxmKr_kiKocds3KToK2-34">
          <mxGeometry relative="1" as="geometry">
            <mxPoint x="595" y="370" as="sourcePoint" />
          </mxGeometry>
        </mxCell>
        <mxCell id="8JxmKr_kiKocds3KToK2-42" value="&lt;font style=&quot;font-size: 8px;&quot;&gt;Animal&lt;/font&gt;" style="rounded=0;whiteSpace=wrap;html=1;" vertex="1" parent="1">
          <mxGeometry x="330" y="340" width="50" height="20" as="geometry" />
        </mxCell>
        <mxCell id="8JxmKr_kiKocds3KToK2-43" value="&lt;font style=&quot;font-size: 8px;&quot;&gt;surname&lt;/font&gt;" style="ellipse;whiteSpace=wrap;html=1;" vertex="1" parent="1">
          <mxGeometry x="380" y="310" width="40" height="20" as="geometry" />
        </mxCell>
        <mxCell id="8JxmKr_kiKocds3KToK2-44" value="&lt;font style=&quot;font-size: 8px;&quot;&gt;surname&lt;/font&gt;" style="ellipse;whiteSpace=wrap;html=1;" vertex="1" parent="1">
          <mxGeometry x="335" y="300" width="40" height="20" as="geometry" />
        </mxCell>
        <mxCell id="8JxmKr_kiKocds3KToK2-45" value="&lt;font style=&quot;font-size: 8px;&quot;&gt;surname&lt;/font&gt;" style="ellipse;whiteSpace=wrap;html=1;" vertex="1" parent="1">
          <mxGeometry x="270" y="340" width="40" height="20" as="geometry" />
        </mxCell>
        <mxCell id="8JxmKr_kiKocds3KToK2-46" value="&lt;font style=&quot;font-size: 8px;&quot;&gt;surname&lt;/font&gt;" style="ellipse;whiteSpace=wrap;html=1;" vertex="1" parent="1">
          <mxGeometry x="395" y="340" width="40" height="20" as="geometry" />
        </mxCell>
        <mxCell id="8JxmKr_kiKocds3KToK2-47" value="&lt;font style=&quot;font-size: 8px;&quot;&gt;surname&lt;/font&gt;" style="ellipse;whiteSpace=wrap;html=1;" vertex="1" parent="1">
          <mxGeometry x="380" y="370" width="40" height="20" as="geometry" />
        </mxCell>
        <mxCell id="8JxmKr_kiKocds3KToK2-48" value="&lt;font style=&quot;font-size: 8px;&quot;&gt;surname&lt;/font&gt;" style="ellipse;whiteSpace=wrap;html=1;" vertex="1" parent="1">
          <mxGeometry x="280" y="370" width="40" height="20" as="geometry" />
        </mxCell>
        <mxCell id="8JxmKr_kiKocds3KToK2-49" value="&lt;font style=&quot;font-size: 8px;&quot;&gt;surname&lt;/font&gt;" style="ellipse;whiteSpace=wrap;html=1;" vertex="1" parent="1">
          <mxGeometry x="290" y="310" width="40" height="20" as="geometry" />
        </mxCell>
      </root>
    </mxGraphModel>
  </diagram>
</mxfile>
